<svg id="aLetMobile" width="29" height="35" viewBox="0 0 29 35" fill="none" xmlns="http://www.w3.org/2000/svg">
  <path d="M29 14.3079V34.03H23.4133V29.6758C21.5088 32.6213 17.8266 34.2861 12.7478 34.2861C5.38355 34.2861 0.812622 30.3161 0.812622 24.6812C0.812622 19.4305 4.11385 15.2044 13.7636 15.2044H23.0324V14.0518C23.0324 9.05723 20.1121 6.23979 14.3984 6.23979C10.5893 6.23979 6.65325 7.64851 4.11385 9.69755L1.70141 5.21526C5.00264 2.52589 9.82751 0.989105 15.0333 0.989105C24.0482 1.11717 29 5.4714 29 14.3079ZM23.1594 24.0409V19.4305H14.1445C8.30387 19.4305 6.65325 21.7357 6.65325 24.4251C6.65325 27.6267 9.31963 29.6758 13.7636 29.6758C18.2075 29.8038 21.7627 27.8828 23.1594 24.0409Z" fill="#FF6060"/>
</svg>