<svg id="sLetMobile" width="29" height="34" viewBox="0 0 29 34" fill="none" xmlns="http://www.w3.org/2000/svg">
  <path d="M0.895752 29.5722L3.30819 24.9619C6.10153 26.8828 10.4185 28.2916 14.6085 28.2916C20.0683 28.2916 22.2267 26.6267 22.2267 23.8093C22.2267 16.5095 1.78454 22.7847 1.78454 9.85014C1.78454 3.95913 6.99032 0.117172 15.2434 0.117172C19.4334 0.117172 24.2583 1.26976 27.0516 3.06268L24.5122 7.67303C21.5919 5.75205 18.4176 5.11172 15.2434 5.11172C10.1646 5.11172 7.62517 7.0327 7.62517 9.59401C7.62517 17.2779 28.0674 11.0027 28.0674 23.6812C28.0674 29.5722 22.7346 33.2861 14.1007 33.2861C8.89487 33.4142 3.56213 31.7493 0.895752 29.5722Z" fill="#FF6060"/>
</svg>